<svg id="visual" viewBox="0 0 900 150" width="900" height="150" xmlns="http://www.w3.org/2000/svg" xmlns:xlink="http://www.w3.org/1999/xlink" version="1.1"><path d="M0 31L6.5 27.3C13 23.7 26 16.3 39 16.5C52 16.7 65 24.3 78 24.3C91 24.3 104 16.7 117.2 17.8C130.3 19 143.7 29 156.8 33C170 37 183 35 196 32C209 29 222 25 235 21.2C248 17.3 261 13.7 274 12.5C287 11.3 300 12.7 313 13.7C326 14.7 339 15.3 352 17.7C365 20 378 24 391 26.5C404 29 417 30 430.2 30.8C443.3 31.7 456.7 32.3 469.8 35.2C483 38 496 43 509 40.7C522 38.3 535 28.7 548 24C561 19.3 574 19.7 587 25.5C600 31.3 613 42.7 626 44.3C639 46 652 38 665 33.7C678 29.3 691 28.7 704 29C717 29.3 730 30.7 743.2 32.2C756.3 33.7 769.7 35.3 782.8 34.8C796 34.3 809 31.7 822 34.5C835 37.3 848 45.7 861 45.7C874 45.7 887 37.3 893.5 33.2L900 29L900 0L893.5 0C887 0 874 0 861 0C848 0 835 0 822 0C809 0 796 0 782.8 0C769.7 0 756.3 0 743.2 0C730 0 717 0 704 0C691 0 678 0 665 0C652 0 639 0 626 0C613 0 600 0 587 0C574 0 561 0 548 0C535 0 522 0 509 0C496 0 483 0 469.8 0C456.7 0 443.3 0 430.2 0C417 0 404 0 391 0C378 0 365 0 352 0C339 0 326 0 313 0C300 0 287 0 274 0C261 0 248 0 235 0C222 0 209 0 196 0C183 0 170 0 156.8 0C143.7 0 130.3 0 117.2 0C104 0 91 0 78 0C65 0 52 0 39 0C26 0 13 0 6.5 0L0 0Z" fill="#fcf6ce"></path><path d="M0 9L6.5 9.5C13 10 26 11 39 15C52 19 65 26 78 28.3C91 30.7 104 28.3 117.2 29.8C130.3 31.3 143.7 36.7 156.8 38.2C170 39.7 183 37.3 196 33.7C209 30 222 25 235 26.8C248 28.7 261 37.3 274 37.3C287 37.3 300 28.7 313 25.3C326 22 339 24 352 22.8C365 21.7 378 17.3 391 20.7C404 24 417 35 430.2 36.8C443.3 38.7 456.7 31.3 469.8 28.5C483 25.7 496 27.3 509 28.7C522 30 535 31 548 34.5C561 38 574 44 587 46.3C600 48.7 613 47.3 626 44.2C639 41 652 36 665 36C678 36 691 41 704 41.3C717 41.7 730 37.3 743.2 38.3C756.3 39.3 769.7 45.7 782.8 45.2C796 44.7 809 37.3 822 31.3C835 25.3 848 20.7 861 21.8C874 23 887 30 893.5 33.5L900 37L900 0L893.5 0C887 0 874 0 861 0C848 0 835 0 822 0C809 0 796 0 782.8 0C769.7 0 756.3 0 743.2 0C730 0 717 0 704 0C691 0 678 0 665 0C652 0 639 0 626 0C613 0 600 0 587 0C574 0 561 0 548 0C535 0 522 0 509 0C496 0 483 0 469.8 0C456.7 0 443.3 0 430.2 0C417 0 404 0 391 0C378 0 365 0 352 0C339 0 326 0 313 0C300 0 287 0 274 0C261 0 248 0 235 0C222 0 209 0 196 0C183 0 170 0 156.8 0C143.7 0 130.3 0 117.2 0C104 0 91 0 78 0C65 0 52 0 39 0C26 0 13 0 6.5 0L0 0Z" fill="#e3dab2"></path><path d="M0 23L6.5 25.3C13 27.7 26 32.3 39 34.5C52 36.7 65 36.3 78 35.5C91 34.7 104 33.3 117.2 30C130.3 26.7 143.7 21.3 156.8 19.5C170 17.7 183 19.3 196 21.3C209 23.3 222 25.7 235 28.7C248 31.7 261 35.3 274 34.2C287 33 300 27 313 23.3C326 19.7 339 18.3 352 21.5C365 24.7 378 32.3 391 31.2C404 30 417 20 430.2 18.3C443.3 16.7 456.7 23.3 469.8 28.3C483 33.3 496 36.7 509 32.7C522 28.7 535 17.3 548 14.7C561 12 574 18 587 23.3C600 28.7 613 33.3 626 32.2C639 31 652 24 665 24C678 24 691 31 704 34C717 37 730 36 743.2 32.5C756.3 29 769.7 23 782.8 22C796 21 809 25 822 24.8C835 24.7 848 20.3 861 19.8C874 19.3 887 22.7 893.5 24.3L900 26L900 0L893.5 0C887 0 874 0 861 0C848 0 835 0 822 0C809 0 796 0 782.8 0C769.7 0 756.3 0 743.2 0C730 0 717 0 704 0C691 0 678 0 665 0C652 0 639 0 626 0C613 0 600 0 587 0C574 0 561 0 548 0C535 0 522 0 509 0C496 0 483 0 469.8 0C456.7 0 443.3 0 430.2 0C417 0 404 0 391 0C378 0 365 0 352 0C339 0 326 0 313 0C300 0 287 0 274 0C261 0 248 0 235 0C222 0 209 0 196 0C183 0 170 0 156.8 0C143.7 0 130.3 0 117.2 0C104 0 91 0 78 0C65 0 52 0 39 0C26 0 13 0 6.5 0L0 0Z" fill="#cbbe97"></path><path d="M0 8L6.5 12.7C13 17.3 26 26.7 39 28C52 29.3 65 22.7 78 20.2C91 17.7 104 19.3 117.2 20.8C130.3 22.3 143.7 23.7 156.8 22.2C170 20.7 183 16.3 196 17.5C209 18.7 222 25.3 235 25C248 24.7 261 17.3 274 16.7C287 16 300 22 313 26.2C326 30.3 339 32.7 352 31.3C365 30 378 25 391 21C404 17 417 14 430.2 12.8C443.3 11.7 456.7 12.3 469.8 16.8C483 21.3 496 29.7 509 30.5C522 31.3 535 24.7 548 19.8C561 15 574 12 587 14.8C600 17.7 613 26.3 626 28.3C639 30.3 652 25.7 665 25.3C678 25 691 29 704 26.7C717 24.3 730 15.7 743.2 16.5C756.3 17.3 769.7 27.7 782.8 31.7C796 35.7 809 33.3 822 33.8C835 34.3 848 37.7 861 36.3C874 35 887 29 893.5 26L900 23L900 0L893.5 0C887 0 874 0 861 0C848 0 835 0 822 0C809 0 796 0 782.8 0C769.7 0 756.3 0 743.2 0C730 0 717 0 704 0C691 0 678 0 665 0C652 0 639 0 626 0C613 0 600 0 587 0C574 0 561 0 548 0C535 0 522 0 509 0C496 0 483 0 469.8 0C456.7 0 443.3 0 430.2 0C417 0 404 0 391 0C378 0 365 0 352 0C339 0 326 0 313 0C300 0 287 0 274 0C261 0 248 0 235 0C222 0 209 0 196 0C183 0 170 0 156.8 0C143.7 0 130.3 0 117.2 0C104 0 91 0 78 0C65 0 52 0 39 0C26 0 13 0 6.5 0L0 0Z" fill="#b3a37c"></path><path d="M0 26L6.5 24C13 22 26 18 39 16.8C52 15.7 65 17.3 78 20C91 22.7 104 26.3 117.2 25.5C130.3 24.7 143.7 19.3 156.8 19.5C170 19.7 183 25.3 196 24.5C209 23.7 222 16.3 235 15.7C248 15 261 21 274 21.2C287 21.3 300 15.7 313 13.3C326 11 339 12 352 15.5C365 19 378 25 391 26.7C404 28.3 417 25.7 430.2 22.5C443.3 19.3 456.7 15.7 469.8 17.3C483 19 496 26 509 28.2C522 30.3 535 27.7 548 24.8C561 22 574 19 587 16.8C600 14.7 613 13.3 626 15C639 16.7 652 21.3 665 23C678 24.7 691 23.3 704 23.3C717 23.3 730 24.7 743.2 25.3C756.3 26 769.7 26 782.8 25C796 24 809 22 822 21.2C835 20.3 848 20.7 861 19.3C874 18 887 15 893.5 13.5L900 12L900 0L893.5 0C887 0 874 0 861 0C848 0 835 0 822 0C809 0 796 0 782.8 0C769.7 0 756.3 0 743.2 0C730 0 717 0 704 0C691 0 678 0 665 0C652 0 639 0 626 0C613 0 600 0 587 0C574 0 561 0 548 0C535 0 522 0 509 0C496 0 483 0 469.8 0C456.7 0 443.3 0 430.2 0C417 0 404 0 391 0C378 0 365 0 352 0C339 0 326 0 313 0C300 0 287 0 274 0C261 0 248 0 235 0C222 0 209 0 196 0C183 0 170 0 156.8 0C143.7 0 130.3 0 117.2 0C104 0 91 0 78 0C65 0 52 0 39 0C26 0 13 0 6.5 0L0 0Z" fill="#9b8963"></path><path d="M0 10L6.5 12.2C13 14.3 26 18.7 39 18.3C52 18 65 13 78 13.2C91 13.3 104 18.7 117.2 18.3C130.3 18 143.7 12 156.8 8.7C170 5.3 183 4.7 196 7.5C209 10.3 222 16.7 235 20C248 23.3 261 23.7 274 22C287 20.3 300 16.7 313 16.7C326 16.7 339 20.3 352 21.7C365 23 378 22 391 20.5C404 19 417 17 430.2 16.8C443.3 16.7 456.7 18.3 469.8 16.3C483 14.3 496 8.7 509 9C522 9.3 535 15.7 548 19.8C561 24 574 26 587 25.5C600 25 613 22 626 18.8C639 15.7 652 12.3 665 12.2C678 12 691 15 704 15C717 15 730 12 743.2 11C756.3 10 769.7 11 782.8 11.7C796 12.3 809 12.7 822 15.3C835 18 848 23 861 23.5C874 24 887 20 893.5 18L900 16L900 0L893.5 0C887 0 874 0 861 0C848 0 835 0 822 0C809 0 796 0 782.8 0C769.7 0 756.3 0 743.2 0C730 0 717 0 704 0C691 0 678 0 665 0C652 0 639 0 626 0C613 0 600 0 587 0C574 0 561 0 548 0C535 0 522 0 509 0C496 0 483 0 469.8 0C456.7 0 443.3 0 430.2 0C417 0 404 0 391 0C378 0 365 0 352 0C339 0 326 0 313 0C300 0 287 0 274 0C261 0 248 0 235 0C222 0 209 0 196 0C183 0 170 0 156.8 0C143.7 0 130.3 0 117.2 0C104 0 91 0 78 0C65 0 52 0 39 0C26 0 13 0 6.5 0L0 0Z" fill="#846f4b"></path><path d="M0 18L6.5 16.8C13 15.7 26 13.3 39 13C52 12.7 65 14.3 78 13.2C91 12 104 8 117.2 6C130.3 4 143.7 4 156.8 4.8C170 5.7 183 7.3 196 9.8C209 12.3 222 15.7 235 15.8C248 16 261 13 274 13.5C287 14 300 18 313 17.8C326 17.7 339 13.3 352 10.3C365 7.3 378 5.7 391 5.8C404 6 417 8 430.2 7.7C443.3 7.3 456.7 4.7 469.8 3.8C483 3 496 4 509 5C522 6 535 7 548 7.7C561 8.3 574 8.7 587 11C600 13.3 613 17.7 626 18.8C639 20 652 18 665 17C678 16 691 16 704 15.8C717 15.7 730 15.3 743.2 16C756.3 16.7 769.7 18.3 782.8 17.3C796 16.3 809 12.7 822 12.3C835 12 848 15 861 14.2C874 13.3 887 8.7 893.5 6.3L900 4L900 0L893.5 0C887 0 874 0 861 0C848 0 835 0 822 0C809 0 796 0 782.8 0C769.7 0 756.3 0 743.2 0C730 0 717 0 704 0C691 0 678 0 665 0C652 0 639 0 626 0C613 0 600 0 587 0C574 0 561 0 548 0C535 0 522 0 509 0C496 0 483 0 469.8 0C456.7 0 443.3 0 430.2 0C417 0 404 0 391 0C378 0 365 0 352 0C339 0 326 0 313 0C300 0 287 0 274 0C261 0 248 0 235 0C222 0 209 0 196 0C183 0 170 0 156.8 0C143.7 0 130.3 0 117.2 0C104 0 91 0 78 0C65 0 52 0 39 0C26 0 13 0 6.5 0L0 0Z" fill="#6d5734"></path><path d="M0 8L6.5 7.5C13 7 26 6 39 5C52 4 65 3 78 3.2C91 3.3 104 4.7 117.2 5C130.3 5.3 143.7 4.7 156.8 5.5C170 6.3 183 8.7 196 8C209 7.3 222 3.7 235 2.5C248 1.3 261 2.7 274 3.5C287 4.3 300 4.7 313 4.2C326 3.7 339 2.3 352 3.5C365 4.7 378 8.3 391 10.5C404 12.7 417 13.3 430.2 13.2C443.3 13 456.7 12 469.8 10.8C483 9.7 496 8.3 509 8.7C522 9 535 11 548 10.7C561 10.3 574 7.7 587 5.8C600 4 613 3 626 3C639 3 652 4 665 4.5C678 5 691 5 704 5.5C717 6 730 7 743.2 7.7C756.3 8.3 769.7 8.7 782.8 7.8C796 7 809 5 822 4.5C835 4 848 5 861 6.5C874 8 887 10 893.5 11L900 12L900 0L893.5 0C887 0 874 0 861 0C848 0 835 0 822 0C809 0 796 0 782.8 0C769.7 0 756.3 0 743.2 0C730 0 717 0 704 0C691 0 678 0 665 0C652 0 639 0 626 0C613 0 600 0 587 0C574 0 561 0 548 0C535 0 522 0 509 0C496 0 483 0 469.8 0C456.7 0 443.3 0 430.2 0C417 0 404 0 391 0C378 0 365 0 352 0C339 0 326 0 313 0C300 0 287 0 274 0C261 0 248 0 235 0C222 0 209 0 196 0C183 0 170 0 156.8 0C143.7 0 130.3 0 117.2 0C104 0 91 0 78 0C65 0 52 0 39 0C26 0 13 0 6.5 0L0 0Z" fill="#573f1f"></path><path d="M0 0L6.5 1C13 2 26 4 39 4.7C52 5.3 65 4.7 78 5.3C91 6 104 8 117.2 8.5C130.3 9 143.7 8 156.8 7.5C170 7 183 7 196 6.2C209 5.3 222 3.7 235 3.2C248 2.7 261 3.3 274 3.8C287 4.3 300 4.7 313 4.3C326 4 339 3 352 2.2C365 1.3 378 0.7 391 1.5C404 2.3 417 4.7 430.2 6.2C443.3 7.7 456.7 8.3 469.8 8.5C483 8.7 496 8.3 509 8.7C522 9 535 10 548 8.8C561 7.7 574 4.3 587 3.2C600 2 613 3 626 3.3C639 3.7 652 3.3 665 4.5C678 5.7 691 8.3 704 9.3C717 10.3 730 9.7 743.2 7.8C756.3 6 769.7 3 782.8 2.8C796 2.7 809 5.3 822 6.3C835 7.3 848 6.7 861 6.8C874 7 887 8 893.5 8.5L900 9L900 0L893.5 0C887 0 874 0 861 0C848 0 835 0 822 0C809 0 796 0 782.8 0C769.7 0 756.3 0 743.2 0C730 0 717 0 704 0C691 0 678 0 665 0C652 0 639 0 626 0C613 0 600 0 587 0C574 0 561 0 548 0C535 0 522 0 509 0C496 0 483 0 469.8 0C456.7 0 443.3 0 430.2 0C417 0 404 0 391 0C378 0 365 0 352 0C339 0 326 0 313 0C300 0 287 0 274 0C261 0 248 0 235 0C222 0 209 0 196 0C183 0 170 0 156.8 0C143.7 0 130.3 0 117.2 0C104 0 91 0 78 0C65 0 52 0 39 0C26 0 13 0 6.5 0L0 0Z" fill="#41290a"></path></svg>